<svg xmlns="http://www.w3.org/2000/svg" viewBox="0 0 29.66 55.74"><path d="M37.62,44.65a.56.56,0,0,1-.46.23H31.73a.56.56,0,0,1-.55-.56V40.44H28.82v3.88a.56.56,0,0,1-.55.56H22.84a.56.56,0,0,1-.46-.23.58.58,0,0,1-.07-.51l1.27-3.7H21.09L15.81,55.81a1.19,1.19,0,0,0,.73,1.5,1.26,1.26,0,0,0,.38.06A1.19,1.19,0,0,0,18,56.58l3.08-9a.56.56,0,0,1,.52-.38H38.35a.56.56,0,0,1,.53.38l3.08,9a1.21,1.21,0,0,0,1.5.73,1.19,1.19,0,0,0,.73-1.5L38.91,40.44H36.42l1.27,3.7A.58.58,0,0,1,37.62,44.65Z" transform="translate(-15.17 -2.13)" style="fill:#1a1a1a;stroke:#fff;stroke-miterlimit:10"/><path d="M30,2.63a1.18,1.18,0,0,0-1.18,1.18V6.53h2.36V3.81A1.18,1.18,0,0,0,30,2.63Z" transform="translate(-15.17 -2.13)" style="fill:#1a1a1a;stroke:#fff;stroke-miterlimit:10"/><path d="M44.33,38.51v-27a.81.81,0,0,0-.81-.81h-27a.81.81,0,0,0-.81.81v27a.82.82,0,0,0,.81.82h2.67V37.11a1.45,1.45,0,0,1,1.44-1.44H39.41a1.45,1.45,0,0,1,1.44,1.44v2.22h2.67A.82.82,0,0,0,44.33,38.51Z" transform="translate(-15.17 -2.13)" style="fill:#1a1a1a;stroke:#fff;stroke-miterlimit:10"/><path d="M39.41,36.79H20.59a.32.32,0,0,0-.32.32v2.22H39.73V37.11A.32.32,0,0,0,39.41,36.79Z" transform="translate(-15.17 -2.13)" style="fill:#1a1a1a;stroke:#fff;stroke-miterlimit:10"/><path d="M33.31,7.65H26.69a.09.09,0,0,0-.08.08V9.55h6.78V7.73A.09.09,0,0,0,33.31,7.65Z" transform="translate(-15.17 -2.13)" style="fill:#1a1a1a;stroke:#fff;stroke-miterlimit:10"/><path d="M23.34,14.38a.46.46,0,0,1,.5.42L23.93,17a.61.61,0,0,1-.46.56l-1.2.18a.46.46,0,0,1-.51-.41l-.09-2.2a.61.61,0,0,1,.47-.56Zm-.48,17.74a.48.48,0,0,1-.51-.42l-.47-11.46a.61.61,0,0,1,.47-.56l1.2-.18a.46.46,0,0,1,.5.42l.48,11.45a.6.6,0,0,1-.44.56Z" transform="translate(-15.17 -2.13)" style="fill:#fff"/><path d="M40.35,20.54c.08.26-.22.53-.46.56l-1,.15a.73.73,0,0,1-.74-.38,3.57,3.57,0,0,0-4-1.74c-2.78.42-4.51,2.52-4.38,5.68s2,4.73,4.79,4.32a4.73,4.73,0,0,0,3.87-3.28.92.92,0,0,1,.71-.6l1-.14c.36-.06.54.16.5.41-.38,2.39-2.35,4.77-6,5.31-4.1.62-6.87-1.67-7-5.69a7.23,7.23,0,0,1,6.48-7.72C37.77,16.88,39.78,18.54,40.35,20.54Z" transform="translate(-15.17 -2.13)" style="fill:#fff"/></svg>
